# xmcd
#
# Track frame offsets: 
#        182
#        14475
#        27580
#        37165
#        50455
#        63780
#        82857
#        94537
#        106430
#        118272
#
# Disc length: 1711 seconds
#
# Revision: 5
# Processed by: cddbd v1.4PL0 Copyright (c) Steve Scherf et al.
# Submitted via: ExactAudioCopy v0.90b4
#
DISCID=7e06ad0a
DTITLE=Reba McEntire - Behind The Scene
DYEAR=1983
DGENRE=Country
TTITLE0=Love Isn't Love ('Til You Give It Away)
TTITLE1=Is It Really Love
TTITLE2=Reasons
TTITLE3=Nickel Dreams
TTITLE4=One Good Reason
TTITLE5=You Really Better Love Me After This
TTITLE6=There Ain't No Future In This
TTITLE7=Why Do We Want (What We Know We Can't Have)
TTITLE8=I Sacrificed More Than You'll Ever Lose
TTITLE9=Pins And Needles
EXTD=
EXTT0=
EXTT1=
EXTT2=
EXTT3=
EXTT4=
EXTT5=
EXTT6=
EXTT7=
EXTT8=
EXTT9=
PLAYORDER=
